+15_ID_stride3.mot
nRows=5
nColumns=38

name +15_ID_stride3.mot
datacolumns 38
datarows 5
range 0.8000000000 0.8200000000
endheader
time	pelvis_tilt_moment	pelvis_list_moment	pelvis_rotation_moment	pelvis_tx_force	pelvis_ty_force	pelvis_tz_force	hip_flexion_r_moment	hip_adduction_r_moment	hip_rotation_r_moment	knee_angle_r_moment	ankle_angle_r_moment	subtalar_angle_r_moment	mtp_angle_r_moment	hip_flexion_l_moment	hip_adduction_l_moment	hip_rotation_l_moment	knee_angle_l_moment	ankle_angle_l_moment	subtalar_angle_l_moment	mtp_angle_l_moment	lumbar_extension_moment	lumbar_bending_moment	lumbar_rotation_moment	arm_flex_r_moment	arm_add_r_moment	arm_rot_r_moment	elbow_flex_r_moment	pro_sup_r_moment	wrist_flex_r_moment	wrist_dev_r_moment	arm_flex_l_moment	arm_add_l_moment	arm_rot_l_moment	elbow_flex_l_moment	pro_sup_l_moment	wrist_flex_l_moment	wrist_dev_l_moment
        0.8000000000	      -49.2584018805	       63.2812933501	       36.2486688358	      -23.6925653578	      444.0456985574	       40.6826384488	       82.4753747475	      -16.0906688671	        3.3255690952	       30.4947969471	        4.5937591787	       -0.6914018525	        0.2138480673	      -26.2296718043	      -54.6643114985	        5.0794104738	       13.3893452420	        8.6251693131	        0.7340790318	        0.2757297309	       36.8891903619	       23.7476974754	        6.3325166028	       -1.1982393807	        1.2123656851	        1.1221315047	        2.6778694393	       -0.0247205663	        0.1727502669	       -0.1897028737	       -2.5449531885	        0.6117107618	        0.1577789428	        2.7077636570	       -0.0522888552	        0.0601155193	       -0.2177750544	
        0.8050000000	      -67.9371522066	       81.2814100543	       37.3471149557	      -41.2223255532	      328.6236048203	      -54.0185570345	       83.4093814604	      -12.4822912825	        3.2644895735	       31.1636958606	        4.7140056336	       -0.6716022629	        0.2298427072	      -20.2008461995	      -81.1209033655	        7.9046950550	       25.7956647325	       -1.7122286597	        4.1054189907	        0.2879368759	       33.2121042593	       25.5606045444	        7.4265043893	       -0.9892836855	        1.0860165299	        1.1132350004	        2.7648569096	       -0.0264389898	        0.1748778351	       -0.1934738801	       -2.5506305341	        0.8002269640	        0.1626988295	        2.7844897483	       -0.0548700710	        0.0578733300	       -0.2208294242	
        0.8100000000	      -77.9105679925	       85.6462248337	       39.5266650252	      -59.9911688385	      159.2829996505	     -129.6528435532	       86.0068622633	       -7.5538500152	        2.7396987227	       31.9209182579	        4.7841496998	       -0.6292205785	        0.2406836265	      -28.5056411494	      -97.5847324080	        8.5401016557	       29.7547820619	      -21.3430097687	        6.2160405312	        0.2905958685	       26.9762984459	       26.3129914731	        7.8401957746	       -0.6298352670	        0.9241478344	        1.0230694812	        2.7908004492	       -0.0295353409	        0.1689866606	       -0.1945619721	       -2.2781408646	        0.9442917514	        0.1820809362	        2.8083729001	       -0.0557282622	        0.0567263522	       -0.2211419954	
        0.8150000000	      -69.5183238824	       52.8621584668	       44.7847426778	      -75.1499981157	      -10.6626002490	     -154.8710738423	       86.5845966944	       -1.7707189940	        1.7525664395	       32.3637946561	        4.7527196415	       -0.5578266184	        0.2447995210	      -68.3120969772	      -97.2625914268	       -1.1248033771	       20.0203007964	      -44.7880904629	        5.0590687189	        0.2668634003	       21.1150530397	       25.2443955951	        7.6279155340	       -0.3526639651	        0.8759482246	        0.9547648428	        2.7704943438	       -0.0314640660	        0.1606193128	       -0.1919803075	       -1.9423212553	        0.9550278288	        0.1706923117	        2.7983299019	       -0.0560023833	        0.0545420900	       -0.2179804018	
        0.8200000000	      -46.9891426378	        4.7749901465	       52.1158110464	      -80.2415109953	     -145.2579213281	     -134.0566004824	       84.8423536606	        4.3899494207	        0.4727098307	       32.2032296595	        4.6373113668	       -0.4627658644	        0.2431208763	     -117.5748137712	      -86.0946975131	      -18.6475203674	        9.9892674958	      -67.8287374548	        1.6437579866	        0.2259265616	       19.1659262272	       23.4114163240	        7.2569397305	       -0.2858388634	        0.9373084407	        0.9624726631	        2.8281542328	       -0.0335870141	        0.1607606959	       -0.1953127450	       -1.7735803340	        0.8949852178	        0.1512404317	        2.8614694571	       -0.0577589805	        0.0553317274	       -0.2216336364	
